<svg width="30" height="30" viewBox="0 0 30 30" fill="none" xmlns="http://www.w3.org/2000/svg">
<path d="M14.5312 0C6.50578 0 0 6.71564 0 15C0 23.2844 6.50578 30 14.5312 30C22.5567 30 29.0625 23.2844 29.0625 15C29.0625 6.71564 22.5567 0 14.5312 0ZM8.53969 10.0002H20.5223C20.6742 10.0002 20.8172 10.0374 20.9461 10.0998L15.1837 14.2752C14.6827 14.7929 14.3723 14.7929 13.8712 14.2752L8.11125 10.1023C8.24203 10.0384 8.38594 10.0002 8.53969 10.0002ZM21.5278 19.2397C21.5278 19.8131 21.0778 20.2781 20.5228 20.2781H8.53969C7.98469 20.2781 7.53469 19.8131 7.53469 19.2397V11.3497C7.53469 11.2974 7.54219 11.2476 7.54969 11.1977L13.4653 15.5318C14.0541 16.14 15.0089 16.14 15.5977 15.5318L21.5133 11.1977C21.5203 11.2476 21.5283 11.2974 21.5283 11.3497V19.2397H21.5278Z" fill="black"/>
</svg>
