<svg width="30" height="30" viewBox="0 0 30 30" fill="none" xmlns="http://www.w3.org/2000/svg">
<path d="M15 0C6.71581 0 0 6.71567 0 15C0 23.2842 6.71581 30 15 30C23.2842 30 30 23.2842 30 15C30 6.71571 23.2842 0 15 0ZM22.2043 23.1973C14.2735 24.1157 8.51326 16.7692 6.59318 12.4282C4.97124 8.76129 7.39998 6.58347 8.19326 5.99552C8.33657 5.88946 8.50998 5.83313 8.68826 5.83313H9.88414C10.0472 5.83313 10.2067 5.88089 10.3429 5.97053C10.4792 6.06017 10.5861 6.18775 10.6506 6.33751L12.3391 10.2547C12.3947 10.3836 12.4168 10.5244 12.4036 10.6641C12.3903 10.8037 12.342 10.9378 12.2632 11.0539L11.1967 12.6259C11.0272 12.8755 11.0071 13.1965 11.1398 13.4675C12.7435 16.7402 16.299 18.4394 17.6562 18.988C17.9759 19.1173 18.342 19.0349 18.5773 18.7828L20.1216 17.1283C20.2417 16.9996 20.3994 16.9122 20.5721 16.8785C20.7449 16.8448 20.9238 16.8665 21.0835 16.9406L24.7855 18.6594C25.0635 18.7885 25.2509 19.0594 25.2677 19.3653C25.4337 22.3712 22.2043 23.1973 22.2043 23.1973Z" fill="black"/>
</svg>
